<?xml version="1.0" encoding="utf-8"?>
<!-- Generator: Adobe Illustrator 21.1.0, SVG Export Plug-In . SVG Version: 6.00 Build 0)  -->
<svg version="1.1" id="Layer_1" xmlns="http://www.w3.org/2000/svg" xmlns:xlink="http://www.w3.org/1999/xlink" x="0px" y="0px"
	 viewBox="0 0 600 600" enable-background="new 0 0 600 600" xml:space="preserve">
<path fill-rule="evenodd" clip-rule="evenodd" fill="#ffd54f" d="M300,16C139.2,16,8.8,146.4,8.8,307.2
	C8.8,435.8,92.2,545,208,583.5c14.6,2.7,19.9-6.3,19.9-14c0-6.9-0.3-25.2-0.4-49.5c-81,17.6-98.1-39-98.1-39
	C116.1,447.3,97,438.3,97,438.3c-26.4-18.1,2-17.7,2-17.7c29.2,2.1,44.6,30,44.6,30c26,44.5,68.2,31.6,84.7,24.2
	c2.6-18.8,10.2-31.6,18.5-38.9c-64.7-7.3-132.6-32.3-132.6-143.9c0-31.8,11.3-57.8,30-78.1c-3-7.4-13-37,2.9-77.1
	c0,0,24.4-7.8,80.1,29.9c23.2-6.5,48.1-9.7,72.9-9.8c24.7,0.1,49.6,3.3,72.9,9.8c55.6-37.7,80-29.9,80-29.9
	c15.9,40.1,5.9,69.7,2.9,77.1c18.7,20.4,29.9,46.3,29.9,78.1c0,111.9-68.1,136.5-133,143.7c10.5,9,19.8,26.8,19.8,53.9
	c0,38.9-0.4,70.3-0.4,79.9c0,7.8,5.2,16.8,20,14c115.6-38.6,199-147.7,199-276.3C591.2,146.4,460.8,16,300,16z"/>
</svg>
