<?xml version="1.0" encoding="utf-8"?>
<!-- Generator: Adobe Illustrator 21.1.0, SVG Export Plug-In . SVG Version: 6.00 Build 0)  -->
<svg version="1.1" id="Layer_1" xmlns="http://www.w3.org/2000/svg" xmlns:xlink="http://www.w3.org/1999/xlink" x="0px" y="0px"
	 viewBox="0 0 600 600" enable-background="new 0 0 600 600" xml:space="preserve">
<path fill="#ffd54f" d="M528.3,32.3H72.1c-21.8,0-39.5,17.3-39.5,38.6V529c0,21.3,17.7,38.6,39.5,38.6h456.2c21.8,0,39.6-17.3,39.6-38.6V70.9
	C568,49.6,550.2,32.3,528.3,32.3z M191.4,488.5H112V233h79.4V488.5z M151.7,198.1c-25.4,0-46-20.6-46-46c0-25.4,20.6-46,46-46
	c25.4,0,46,20.6,46,46C197.7,177.5,177.1,198.1,151.7,198.1z M488.8,488.5h-79.3V364.3c0-29.6-0.5-67.7-41.3-67.7
	c-41.3,0-47.7,32.3-47.7,65.6v126.4h-79.3V233h76.2v34.9h1.1c10.6-20.1,36.5-41.3,75.1-41.3c80.4,0,95.2,52.9,95.2,121.7V488.5z"/>
</svg>
